<?xml version="1.0" standalone="no"?>
<!DOCTYPE svg PUBLIC "-//W3C//DTD SVG 20010904//EN"
 "http://www.w3.org/TR/2001/REC-SVG-20010904/DTD/svg10.dtd">
<svg version="1.0" xmlns="http://www.w3.org/2000/svg"
 width="106.000000pt" height="96.000000pt" viewBox="0 0 106.000000 96.000000"
 preserveAspectRatio="xMidYMid meet">
<metadata>
Created by potrace 1.15, written by Peter Selinger 2001-2017
</metadata>
<g transform="translate(0.000000,96.000000) scale(0.100000,-0.100000)"
fill="#000000" stroke="none">
<path d="M229 927 c-76 -19 -136 -40 -149 -52 -65 -59 -84 -173 -78 -454 4
-178 7 -201 29 -255 13 -33 36 -68 50 -79 47 -34 251 -80 359 -80 95 0 456 53
513 75 37 14 84 70 96 115 15 53 14 530 -1 574 -16 49 -45 87 -81 105 -45 24
-365 75 -497 80 -105 4 -126 1 -241 -29z m170 -126 c47 -33 65 -68 69 -135 3
-48 -1 -74 -16 -109 -20 -45 -20 -46 -1 -84 38 -74 15 -210 -43 -247 -41 -26
-76 -28 -178 -11 l-100 18 0 55 0 54 43 -5 c175 -24 187 -21 187 42 0 59 -14
70 -107 77 l-83 7 0 53 0 54 73 0 c92 0 117 15 117 70 0 45 -23 74 -54 66 -12
-2 -56 -8 -99 -11 l-78 -7 3 53 3 53 90 17 c99 19 137 16 174 -10z m441 -170
c0 -65 7 -71 78 -71 32 0 32 0 32 -49 l0 -50 -52 -3 -53 -3 -3 -62 -3 -63 -44
0 -45 0 0 60 0 60 -60 0 -60 0 0 60 0 60 60 0 60 0 0 60 0 60 45 0 45 0 0 -59z"/>
</g>
</svg>
